<?xml version="1.0" encoding="utf-8"?>

<svg width="24" height="24" version="1.1" xmlns="http://www.w3.org/2000/svg" xmlns:xlink="http://www.w3.org/1999/xlink" x="0px" y="0px" viewBox="0 0 256 256" enable-background="new 0 0 256 256" xml:space="preserve">
<metadata> Svg Vector Icons : http://www.onlinewebfonts.com/icon </metadata>
<g><g><g><path fill="#000000" d="M109.3,99.7c-47.9,47.9-87.3,87.8-87.5,88.7c-1.5,5.2-12.1,54.7-11.8,55.1c0.7,0.6,59.7-6.5,61.3-7.5c0.9-0.5,40.5-40,88.1-87.7L246,61.4L221.5,37c-13.4-13.4-24.6-24.4-24.8-24.4C196.5,12.5,157.2,51.8,109.3,99.7z M213.3,44.8l16.2,16.3l-82,82.4l-82,82.4l-20.4,2.3c-11.2,1.2-20.5,2.2-20.6,2c-0.1-0.1,1.7-8.8,4-19.1l4.2-18.8l81.9-81.9c44.9-44.9,81.9-81.8,82.1-81.8C197,28.6,204.4,35.9,213.3,44.8z"/></g></g></g>
</svg>