<?xml version="1.0" encoding="utf-8"?>
<svg width="24" height="24" version="1.1" xmlns="http://www.w3.org/2000/svg" xmlns:xlink="http://www.w3.org/1999/xlink" x="0px" y="0px" viewBox="0 0 256 256" enable-background="new 0 0 256 256" xml:space="preserve">
<metadata> Svg Vector Icons : http://www.onlinewebfonts.com/icon </metadata>
<g><g><g><path fill="#000000" d="M107.2,10.5c-5.7,1-11.2,4-15.4,8.6c-4.9,5.3-6.9,10.1-7.3,17.7l-0.3,4.8l-30.7,0.1l-30.8,0.1v4.6V51H128h105.3v-4.6v-4.6l-31.9-0.1l-31.9-0.1l-0.3-4.8c-0.6-10.6-6.2-19.3-15.2-23.7c-5.8-2.8-8.3-3.1-27.4-3C117.2,10.1,108.5,10.2,107.2,10.5z M149.5,21.6c4,2,6.5,4.5,8.5,8.5c1.1,2.2,1.3,3.4,1.4,7.1l0.2,4.5l-32.9-0.1l-32.9-0.1l-0.1-1.8c-0.6-6.4,2.8-13.3,8.1-17c4.4-3,5.2-3.1,25.7-3l18.4,0.1L149.5,21.6z"/><path fill="#000000" d="M42.5,66.1c0,0.7,3.2,29,7.1,62.8c3.9,33.8,8,68.8,9,77.7c1,8.9,2,17.7,2.3,19.6c1,7,5.6,13.6,11.8,17c5.5,2.9,4.4,2.9,55.2,2.9c50.2,0,49.5,0,55-2.6c5.9-2.8,11.2-9.9,12.2-16.3c0.4-2.4,18.9-161.2,18.9-162c0-0.1-2.2-0.2-4.8-0.2c-2.7,0-4.8,0.2-4.8,0.4c0,0.3-4,34.4-8.8,76c-4.8,41.5-9,77.5-9.2,79.9c-0.8,7.7-2.6,10.9-7.4,13.6l-2.5,1.4l-47.2,0.1c-54.4,0.1-50.5,0.4-54.9-4c-2.1-2.1-2.8-3.2-3.4-5.2c-0.4-1.4-4.8-38-9.8-81.3c-4.9-43.4-9.1-79.3-9.3-79.9c-0.2-1-0.4-1-4.8-1h-4.6L42.5,66.1L42.5,66.1z"/><path fill="#000000" d="M82.1,73.7c0,2.6,10.1,150.8,10.3,151c0.1,0.1,2.2,0,4.7-0.1l4.4-0.3v-1.9c0-1.1-2.2-34.6-4.8-74.5c-2.7-39.9-4.8-73-4.8-73.6c0-1.1-0.1-1.1-4.8-1.1C83.4,73.1,82.1,73.3,82.1,73.7z"/><path fill="#000000" d="M123.6,149v75.8h4.6h4.6V149V73.1h-4.6h-4.6L123.6,149L123.6,149z"/><path fill="#000000" d="M165.6,74c0,0.5-2.6,33.4-5.8,73.2c-3.2,39.7-5.8,73.3-5.9,74.6l-0.1,2.3l4.6,0.4c2.5,0.2,4.6,0.3,4.7,0.2c0.1-0.1,12.2-149.9,12.2-151.3c0-0.2-2.2-0.3-4.8-0.3C165.9,73.1,165.6,73.2,165.6,74z"/></g></g></g>
</svg>